# xmcd CD database file
#
# Track frame offsets:
#	150
#	11240
#	27328
#	52203
#	85038
#	102797
#	122393
#	158695
#	170913
#	188578
#
# Disc length: 2908 seconds
#
# Revision: 0
# Processed by: cddbd v1.5.2PL0 Copyright (c) Steve Scherf et al.
# Submitted via: CDex 1.51
#
DISCID=780b5a0a
DTITLE=Bror Gunnar Jansson - Moan Snake Moan
DYEAR=2014
DGENRE=Blues
TTITLE0=The Church Bells' Tone
TTITLE1=Moan Snake Moan - Pt.1 - Rattlesnake
TTITLE2=William Is Back
TTITLE3=One For Earth
TTITLE4=He Had A Knife In His Hand
TTITLE5=Ain't No Grave (Claude Ely)
TTITLE6=New Mountain Ballad N°1
TTITLE7=Tv
TTITLE8=Butch
TTITLE9=God Have Mercy
EXTD=YEAR: 2014
EXTT0=
EXTT1=
EXTT2=
EXTT3=
EXTT4=
EXTT5=
EXTT6=
EXTT7=
EXTT8=
EXTT9=
PLAYORDER=
